<?xml version="1.0" encoding="utf-8"?>
<!-- Generator: Adobe Illustrator 23.0.1, SVG Export Plug-In . SVG Version: 6.00 Build 0)  -->
<!DOCTYPE svg PUBLIC "-//W3C//DTD SVG 1.1//EN" "http://www.w3.org/Graphics/SVG/1.1/DTD/svg11.dtd" [
	<!ENTITY ns_extend "http://ns.adobe.com/Extensibility/1.0/">
	<!ENTITY ns_ai "http://ns.adobe.com/AdobeIllustrator/10.0/">
	<!ENTITY ns_graphs "http://ns.adobe.com/Graphs/1.0/">
	<!ENTITY ns_vars "http://ns.adobe.com/Variables/1.0/">
	<!ENTITY ns_imrep "http://ns.adobe.com/ImageReplacement/1.0/">
	<!ENTITY ns_sfw "http://ns.adobe.com/SaveForWeb/1.0/">
	<!ENTITY ns_custom "http://ns.adobe.com/GenericCustomNamespace/1.0/">
	<!ENTITY ns_adobe_xpath "http://ns.adobe.com/XPath/1.0/">
]>
<svg version="1.1" id="图层_1" xmlns:x="&ns_extend;" xmlns:i="&ns_ai;" xmlns:graph="&ns_graphs;"
	 xmlns="http://www.w3.org/2000/svg" xmlns:xlink="http://www.w3.org/1999/xlink" x="0px" y="0px" width="500px" height="339px"
	 viewBox="0 0 500 339" style="enable-background:new 0 0 500 339;" xml:space="preserve">
<style type="text/css">
	.st0{fill:#EAEBEC;}
	.st1{fill:#444444;}
	.st2{fill-opacity:0;}
	.st3{fill:none;stroke:#00A4FF;stroke-dasharray:5;}
	.st4{fill:#00A4FF;}
	.st5{opacity:0.6;fill:#BBBBBB;enable-background:new    ;}
	.st6{fill:#FFFFFF;stroke:#E5E5E5;}
</style>
<metadata>
	<sfw  xmlns="&ns_sfw;">
		<slices></slices>
		<sliceSourceBounds  bottomLeftOrigin="true" height="300" width="476.5" x="12.5" y="20"></sliceSourceBounds>
	</sfw>
</metadata>
<title>画板</title>
<desc>Created with Sketch.</desc>
<g id="画板">
	<g id="tcloud_svg" transform="translate(12.000000, 19.000000)">
		<g id="bottomgroup">
			<g id="GrayRectGroup1" transform="translate(0.500000, 0.000000)">
				<rect id="矩形" y="0" class="st0" width="150" height="300"/>
				<g id="编组" transform="translate(10.000000, 9.000000)">
					<g id="集群1">
						<g>
							<path id="path-1" d="M5.3,13c-0.8,0.8-2.3,1.6-4.5,2.2l0.5,0.9c2.4-0.9,4-1.9,4.9-3.1h0.3v3.4h1V13h0.3c1,1.2,2.6,2.3,4.9,3
								l0.4-0.9c-2-0.5-3.4-1.2-4.4-2.1H13v-0.9H7.5v-0.7h-1v0.7H1V13H5.3z M2.3,7V11h10.3v-0.9H7.9v-1h3.9V8.3H7.9V7.4h3.9V6.6H7.9
								v-1h4.5V4.8H7.8c-0.2-0.5-0.4-1-0.6-1.4l-1,0.2C6.5,4,6.7,4.4,6.9,4.8h-3C4,4.5,4.2,4.1,4.3,3.8L3.4,3.5
								C2.8,5,1.8,6.3,0.6,7.5l0.6,0.8C1.6,7.9,2,7.5,2.3,7z M6.9,10.1H3.3v-1h3.6V10.1z M6.9,8.3H3.3V7.4h3.6V8.3z M6.9,6.6H3.3
								V5.8l0.1-0.1h3.6V6.6z M20,9.9V7.5h0.8V6.6H20V4.1h-4.8V5h1.6c0,0.6,0,1.1-0.1,1.6h-2v0.9h1.9c-0.1,0.5-0.1,1.1-0.2,1.6h-1.3
								v0.9h1.1c-0.4,1.4-1,2.6-1.7,3.5l0.5,0.8c0.5-0.6,1-1.3,1.4-2.1v4.2h0.9v-0.8h2.2v0.8h0.9v-5h-3.7c0.2-0.4,0.3-0.9,0.4-1.4
								H20z M17.8,5h1.4v1.6h-1.4C17.7,6.1,17.8,5.5,17.8,5z M17.6,7.5h1.5v1.6h-1.8l0.1-0.8C17.5,8,17.6,7.8,17.6,7.5z M17.3,14.6
								v-2.4h2.2v2.4H17.3z M23.7,7.2v2h-2.2v0.9h2.2v2h-2.6v1h2.6v3.2h1v-3.2h2.6v-1h-2.6v-2h2V9.2h-2v-2H27v-1h-1.6
								c0.4-0.7,0.7-1.5,1-2.4l-1-0.3c-0.3,1-0.6,1.9-1,2.7h-1.6l0.8-0.4C23.4,5,23,4.3,22.5,3.6L21.7,4c0.4,0.7,0.8,1.4,1.2,2.2
								h-1.7v1H23.7z M31.2,5h0.9v10H31V6.4c-0.6,0.6-1.4,1.1-2.4,1.4V6.6C29.1,6.5,29.5,6.3,30,6C30.5,5.7,30.9,5.4,31.2,5z"/>
						</g>
						<g>
							<path class="st1" d="M5.3,13c-0.8,0.8-2.3,1.6-4.5,2.2l0.5,0.9c2.4-0.9,4-1.9,4.9-3.1h0.3v3.4h1V13h0.3c1,1.2,2.6,2.3,4.9,3
								l0.4-0.9c-2-0.5-3.4-1.2-4.4-2.1H13v-0.9H7.5v-0.7h-1v0.7H1V13H5.3z M2.3,7V11h10.3v-0.9H7.9v-1h3.9V8.3H7.9V7.4h3.9V6.6H7.9
								v-1h4.5V4.8H7.8c-0.2-0.5-0.4-1-0.6-1.4l-1,0.2C6.5,4,6.7,4.4,6.9,4.8h-3C4,4.5,4.2,4.1,4.3,3.8L3.4,3.5
								C2.8,5,1.8,6.3,0.6,7.5l0.6,0.8C1.6,7.9,2,7.5,2.3,7z M6.9,10.1H3.3v-1h3.6V10.1z M6.9,8.3H3.3V7.4h3.6V8.3z M6.9,6.6H3.3
								V5.8l0.1-0.1h3.6V6.6z M20,9.9V7.5h0.8V6.6H20V4.1h-4.8V5h1.6c0,0.6,0,1.1-0.1,1.6h-2v0.9h1.9c-0.1,0.5-0.1,1.1-0.2,1.6h-1.3
								v0.9h1.1c-0.4,1.4-1,2.6-1.7,3.5l0.5,0.8c0.5-0.6,1-1.3,1.4-2.1v4.2h0.9v-0.8h2.2v0.8h0.9v-5h-3.7c0.2-0.4,0.3-0.9,0.4-1.4
								H20z M17.8,5h1.4v1.6h-1.4C17.7,6.1,17.8,5.5,17.8,5z M17.6,7.5h1.5v1.6h-1.8l0.1-0.8C17.5,8,17.6,7.8,17.6,7.5z M17.3,14.6
								v-2.4h2.2v2.4H17.3z M23.7,7.2v2h-2.2v0.9h2.2v2h-2.6v1h2.6v3.2h1v-3.2h2.6v-1h-2.6v-2h2V9.2h-2v-2H27v-1h-1.6
								c0.4-0.7,0.7-1.5,1-2.4l-1-0.3c-0.3,1-0.6,1.9-1,2.7h-1.6l0.8-0.4C23.4,5,23,4.3,22.5,3.6L21.7,4c0.4,0.7,0.8,1.4,1.2,2.2
								h-1.7v1H23.7z M31.2,5h0.9v10H31V6.4c-0.6,0.6-1.4,1.1-2.4,1.4V6.6C29.1,6.5,29.5,6.3,30,6C30.5,5.7,30.9,5.4,31.2,5z"/>
						</g>
					</g>
				</g>
			</g>
			<g id="GrayRectGroup4" transform="translate(167.000000, 0.000000)">
				<rect y="0" class="st0" width="310" height="300"/>
				<g transform="translate(10.000000, 9.000000)">
					<g id="集群2">
						<g>
							<path id="path-2" d="M5.3,13c-0.8,0.8-2.3,1.6-4.5,2.2l0.5,0.9c2.4-0.9,4-1.9,4.9-3.1h0.3v3.4h1V13h0.3c1,1.2,2.6,2.3,4.9,3
								l0.4-0.9c-2-0.5-3.4-1.2-4.4-2.1H13v-0.9H7.5v-0.7h-1v0.7H1V13H5.3z M2.3,7V11h10.3v-0.9H7.9v-1h3.9V8.3H7.9V7.4h3.9V6.6H7.9
								v-1h4.5V4.8H7.8c-0.2-0.5-0.4-1-0.6-1.4l-1,0.2C6.5,4,6.7,4.4,6.9,4.8h-3C4,4.5,4.2,4.1,4.3,3.8L3.4,3.5
								C2.8,5,1.8,6.3,0.6,7.5l0.6,0.8C1.6,7.9,2,7.5,2.3,7z M6.9,10.1H3.3v-1h3.6V10.1z M6.9,8.3H3.3V7.4h3.6V8.3z M6.9,6.6H3.3
								V5.8l0.1-0.1h3.6V6.6z M20,9.9V7.5h0.8V6.6H20V4.1h-4.8V5h1.6c0,0.6,0,1.1-0.1,1.6h-2v0.9h1.9c-0.1,0.5-0.1,1.1-0.2,1.6h-1.3
								v0.9h1.1c-0.4,1.4-1,2.6-1.7,3.5l0.5,0.8c0.5-0.6,1-1.3,1.4-2.1v4.2h0.9v-0.8h2.2v0.8h0.9v-5h-3.7c0.2-0.4,0.3-0.9,0.4-1.4
								H20z M17.8,5h1.4v1.6h-1.4C17.7,6.1,17.8,5.5,17.8,5z M17.6,7.5h1.5v1.6h-1.8l0.1-0.8C17.5,8,17.6,7.8,17.6,7.5z M17.3,14.6
								v-2.4h2.2v2.4H17.3z M23.7,7.2v2h-2.2v0.9h2.2v2h-2.6v1h2.6v3.2h1v-3.2h2.6v-1h-2.6v-2h2V9.2h-2v-2H27v-1h-1.6
								c0.4-0.7,0.7-1.5,1-2.4l-1-0.3c-0.3,1-0.6,1.9-1,2.7h-1.6l0.8-0.4C23.4,5,23,4.3,22.5,3.6L21.7,4c0.4,0.7,0.8,1.4,1.2,2.2
								h-1.7v1H23.7z M32.3,4.8c0.9,0,1.7,0.3,2.3,0.8c0.6,0.5,0.9,1.2,0.9,2.1s-0.3,1.7-1,2.4c-0.3,0.3-0.9,0.8-1.8,1.5l-0.2,0.2
								c-1.3,0.9-2,1.6-2.2,2.3h5.3v1h-6.7c0-0.9,0.3-1.7,1-2.5c0.4-0.4,1.1-1.1,2.2-1.8l0.4-0.3c0.6-0.4,0.9-0.7,1.2-1
								c0.5-0.5,0.8-1.1,0.8-1.8c0-0.6-0.2-1.1-0.5-1.4c-0.4-0.3-0.9-0.5-1.5-0.5c-0.7,0-1.2,0.2-1.6,0.7c-0.4,0.4-0.6,1.1-0.6,2H29
								c0-1.1,0.3-2,0.9-2.7C30.5,5.1,31.3,4.8,32.3,4.8z"/>
						</g>
						<g>
							<path class="st1" d="M5.3,13c-0.8,0.8-2.3,1.6-4.5,2.2l0.5,0.9c2.4-0.9,4-1.9,4.9-3.1h0.3v3.4h1V13h0.3c1,1.2,2.6,2.3,4.9,3
								l0.4-0.9c-2-0.5-3.4-1.2-4.4-2.1H13v-0.9H7.5v-0.7h-1v0.7H1V13H5.3z M2.3,7V11h10.3v-0.9H7.9v-1h3.9V8.3H7.9V7.4h3.9V6.6H7.9
								v-1h4.5V4.8H7.8c-0.2-0.5-0.4-1-0.6-1.4l-1,0.2C6.5,4,6.7,4.4,6.9,4.8h-3C4,4.5,4.2,4.1,4.3,3.8L3.4,3.5
								C2.8,5,1.8,6.3,0.6,7.5l0.6,0.8C1.6,7.9,2,7.5,2.3,7z M6.9,10.1H3.3v-1h3.6V10.1z M6.9,8.3H3.3V7.4h3.6V8.3z M6.9,6.6H3.3
								V5.8l0.1-0.1h3.6V6.6z M20,9.9V7.5h0.8V6.6H20V4.1h-4.8V5h1.6c0,0.6,0,1.1-0.1,1.6h-2v0.9h1.9c-0.1,0.5-0.1,1.1-0.2,1.6h-1.3
								v0.9h1.1c-0.4,1.4-1,2.6-1.7,3.5l0.5,0.8c0.5-0.6,1-1.3,1.4-2.1v4.2h0.9v-0.8h2.2v0.8h0.9v-5h-3.7c0.2-0.4,0.3-0.9,0.4-1.4
								H20z M17.8,5h1.4v1.6h-1.4C17.7,6.1,17.8,5.5,17.8,5z M17.6,7.5h1.5v1.6h-1.8l0.1-0.8C17.5,8,17.6,7.8,17.6,7.5z M17.3,14.6
								v-2.4h2.2v2.4H17.3z M23.7,7.2v2h-2.2v0.9h2.2v2h-2.6v1h2.6v3.2h1v-3.2h2.6v-1h-2.6v-2h2V9.2h-2v-2H27v-1h-1.6
								c0.4-0.7,0.7-1.5,1-2.4l-1-0.3c-0.3,1-0.6,1.9-1,2.7h-1.6l0.8-0.4C23.4,5,23,4.3,22.5,3.6L21.7,4c0.4,0.7,0.8,1.4,1.2,2.2
								h-1.7v1H23.7z M32.3,4.8c0.9,0,1.7,0.3,2.3,0.8c0.6,0.5,0.9,1.2,0.9,2.1s-0.3,1.7-1,2.4c-0.3,0.3-0.9,0.8-1.8,1.5l-0.2,0.2
								c-1.3,0.9-2,1.6-2.2,2.3h5.3v1h-6.7c0-0.9,0.3-1.7,1-2.5c0.4-0.4,1.1-1.1,2.2-1.8l0.4-0.3c0.6-0.4,0.9-0.7,1.2-1
								c0.5-0.5,0.8-1.1,0.8-1.8c0-0.6-0.2-1.1-0.5-1.4c-0.4-0.3-0.9-0.5-1.5-0.5c-0.7,0-1.2,0.2-1.6,0.7c-0.4,0.4-0.6,1.1-0.6,2H29
								c0-1.1,0.3-2,0.9-2.7C30.5,5.1,31.3,4.8,32.3,4.8z"/>
						</g>
					</g>
				</g>
			</g>
			<g id="DashRectBlueGroup10" transform="translate(18.000000, 51.000000)">
				<rect y="0" class="st2" width="281" height="190"/>
				<path id="路径" class="st3" d="M0,0h281v190H0V0"/>
				<g transform="translate(10.000000, 9.000000)">
					<g id="命名空间1">
						<g>
							<path class="st4" d="M6.3,9.5H2.1v5.6h1v-1h2.3v0.7h1V9.5z M3,13.2v-2.7h2.3v2.7H3z M6.6,3.5c-1.4,1.6-3.4,3-6,4.2l0.5,0.9
								C3.7,7.4,5.6,6.1,7,4.4c1.4,1.6,3.3,3,5.8,4.1l0.6-0.9c-2.5-1.1-4.5-2.5-6-4.2H6.6z M4.1,7.1V8h5.8V7.1H4.1z M10.7,14.9
								c0.8,0,1.3-0.4,1.3-1.3V9.5H7.6v7h1v-6.1H11v3c0,0.4-0.2,0.6-0.6,0.6l-1.1,0l0.3,0.9H10.7z M19,15.5h6.3v0.8h1v-5.9h-5.8
								c2.6-1.2,4.4-2.8,5.4-4.7V4.8h-5.5c0.3-0.4,0.5-0.8,0.8-1.2L20,3.5c-0.8,1.5-2.5,2.7-4.8,3.8l0.7,0.9
								c1.5-0.7,2.7-1.5,3.6-2.4h5.2c-0.7,1.1-1.7,2.1-3.1,3C21,8.3,20.1,7.7,19.1,7l-0.9,0.5c1.1,0.6,1.9,1.2,2.5,1.7
								c-1.6,0.8-3.6,1.5-6,2l0.5,1c1-0.2,1.9-0.5,2.8-0.8v4.9h1V15.5z M25.2,14.6H19v-3.2h6.3V14.6z M30.2,10.7v1h4.3V15H29v1H41
								v-1h-5.5v-3.3h4.3v-1H30.2z M36.3,6.8l-0.5,0.8c1.4,0.6,2.7,1.5,4,2.5l0.6-0.9C39.1,8.3,37.8,7.4,36.3,6.8z M33.4,6.9
								c-1,0.9-2.3,1.7-3.9,2.3l0.4,0.9c1.6-0.7,3-1.5,4.1-2.5L33.4,6.9z M35.1,3.5L34,3.6c0.2,0.4,0.4,0.8,0.6,1.3h-5.5v2.8h1V5.9
								h9.8v1.9h1V4.9h-5.4C35.4,4.4,35.2,3.9,35.1,3.5z M46.3,7.4v6.5h5.3V7.4H46.3z M50.7,13h-3.4v-1.9h3.4V13z M47.2,10.2V8.3
								h3.4v1.9H47.2z M53.2,16.3c0.9,0,1.4-0.5,1.4-1.5V4.3h-6.4v0.9h5.4v9.3c0,0.6-0.2,0.9-0.6,0.9l-1.2,0l0.3,0.9H53.2z
								 M43.4,5.9v10.5h1V5.9H43.4z M45.4,3.4l-0.9,0.4c0.6,0.8,1.2,1.6,1.7,2.6L47.1,6C46.6,5,46.1,4.2,45.4,3.4z M59.2,5h0.9v10
								H59V6.4c-0.6,0.6-1.4,1.1-2.4,1.4V6.6C57.1,6.5,57.5,6.3,58,6C58.5,5.7,58.9,5.4,59.2,5z"/>
						</g>
					</g>
				</g>
			</g>
		</g>
		<g id="maingroup" transform="translate(35.000000, 51.000000)">
			<rect x="2" y="42" class="st5" width="97" height="50"/>
			<rect y="40" class="st6" width="97" height="50"/>
			<g id="部署组1">
				<g>
					<path id="path-4" d="M22.6,61.4l-0.9,0.3c0.4,0.6,0.6,1.3,0.9,2h-1.9v1h7v-1H26c0.4-0.6,0.7-1.3,1-2.1l-0.9-0.3
						c-0.3,0.9-0.6,1.7-1,2.5h-1.5C23.3,62.8,23,62.1,22.6,61.4z M28.4,59.1v12.2h1V60.1h2.5c-0.4,1.5-0.9,2.8-1.4,3.9
						c1.1,1.3,1.7,2.4,1.7,3.2c0,0.5-0.1,0.8-0.2,1c-0.1,0.2-0.5,0.3-1,0.3c-0.3,0-0.6,0-1-0.1l0.3,1.1c1.1,0,1.9-0.2,2.3-0.5
						c0.4-0.3,0.5-0.9,0.5-1.8c0-0.8-0.5-1.9-1.6-3.2c0.5-1.3,1-2.6,1.4-4.1v-0.8H28.4z M21,59.9v1h6.6v-1h-2.9l-0.2-0.6
						c-0.1-0.3-0.2-0.6-0.3-0.8l-1,0.2c0.2,0.4,0.4,0.8,0.5,1.3H21z M27.1,66h-5.6v5.3h1v-0.8h3.6v0.8h1V66z M22.5,69.6V67h3.6v2.6
						H22.5z M36,59.1v2.7h4v0.9h-3.7v0.8h3.7v1h-5.2v0.9h6.3c-1.8,0.8-3.9,1.3-6.4,1.5l0.5,0.8c0.7-0.1,1.5-0.3,2.2-0.4v4.2h1v-0.6
						h6v0.6h1v-5.1h-4.9c0.8-0.3,1.6-0.6,2.3-1h4.4v-0.9h-3c0.8-0.6,1.6-1.2,2.3-1.9l-0.8-0.4c-0.8,0.9-1.8,1.7-2.8,2.4H41v-1h3
						v-0.8h-3v-0.9h4.9v-2.7H36z M45,61h-2.1v-1.2H45V61z M42,61h-2v-1.2h2V61z M39.1,61H37v-1.2h2.1V61z M38.5,69h6V70h-6V69z
						 M44.4,68.2h-6v-1.1h6V68.2z M53.5,68.3c-1.3,0.6-2.9,1.1-4.7,1.4l0.1,1c1.7-0.4,3.2-0.9,4.5-1.5V68.3z M51.3,58.6
						c-0.6,1.6-1.3,3-2.2,4.2c-0.1,0.2-0.3,0.3-0.4,0.4l0.3,0.9c0.8-0.1,1.7-0.2,2.5-0.4c-0.8,1.3-1.5,2.2-2,2.8
						c-0.1,0.1-0.3,0.2-0.5,0.3l0.3,0.9c1.4-0.2,2.9-0.6,4.4-1.1v-0.9c-1,0.4-2.1,0.7-3.1,0.9c0.9-1,2-2.7,3.3-5.1l-0.9-0.3L52.4,62
						c-0.2,0.3-0.3,0.5-0.5,0.8c-0.7,0.1-1.3,0.2-2,0.3c0.8-1,1.5-2.4,2.3-4.2L51.3,58.6z M60.2,59.2h-5.7v10.7h-1.2v1h8.1v-1h-1.2
						V59.2z M55.5,69.9v-2.7h3.7v2.7H55.5z M55.5,66.3v-2.6h3.7v2.6H55.5z M55.5,62.7v-2.5h3.7v2.5H55.5z M65.2,60h0.9v10H65v-8.6
						c-0.6,0.6-1.4,1.1-2.4,1.4v-1.1c0.4-0.1,0.9-0.3,1.4-0.6C64.5,60.7,64.9,60.4,65.2,60z"/>
				</g>
				<g>
					<path class="st1" d="M22.6,61.4l-0.9,0.3c0.4,0.6,0.6,1.3,0.9,2h-1.9v1h7v-1H26c0.4-0.6,0.7-1.3,1-2.1l-0.9-0.3
						c-0.3,0.9-0.6,1.7-1,2.5h-1.5C23.3,62.8,23,62.1,22.6,61.4z M28.4,59.1v12.2h1V60.1h2.5c-0.4,1.5-0.9,2.8-1.4,3.9
						c1.1,1.3,1.7,2.4,1.7,3.2c0,0.5-0.1,0.8-0.2,1c-0.1,0.2-0.5,0.3-1,0.3c-0.3,0-0.6,0-1-0.1l0.3,1.1c1.1,0,1.9-0.2,2.3-0.5
						c0.4-0.3,0.5-0.9,0.5-1.8c0-0.8-0.5-1.9-1.6-3.2c0.5-1.3,1-2.6,1.4-4.1v-0.8H28.4z M21,59.9v1h6.6v-1h-2.9l-0.2-0.6
						c-0.1-0.3-0.2-0.6-0.3-0.8l-1,0.2c0.2,0.4,0.4,0.8,0.5,1.3H21z M27.1,66h-5.6v5.3h1v-0.8h3.6v0.8h1V66z M22.5,69.6V67h3.6v2.6
						H22.5z M36,59.1v2.7h4v0.9h-3.7v0.8h3.7v1h-5.2v0.9h6.3c-1.8,0.8-3.9,1.3-6.4,1.5l0.5,0.8c0.7-0.1,1.5-0.3,2.2-0.4v4.2h1v-0.6
						h6v0.6h1v-5.1h-4.9c0.8-0.3,1.6-0.6,2.3-1h4.4v-0.9h-3c0.8-0.6,1.6-1.2,2.3-1.9l-0.8-0.4c-0.8,0.9-1.8,1.7-2.8,2.4H41v-1h3
						v-0.8h-3v-0.9h4.9v-2.7H36z M45,61h-2.1v-1.2H45V61z M42,61h-2v-1.2h2V61z M39.1,61H37v-1.2h2.1V61z M38.5,69h6V70h-6V69z
						 M44.4,68.2h-6v-1.1h6V68.2z M53.5,68.3c-1.3,0.6-2.9,1.1-4.7,1.4l0.1,1c1.7-0.4,3.2-0.9,4.5-1.5V68.3z M51.3,58.6
						c-0.6,1.6-1.3,3-2.2,4.2c-0.1,0.2-0.3,0.3-0.4,0.4l0.3,0.9c0.8-0.1,1.7-0.2,2.5-0.4c-0.8,1.3-1.5,2.2-2,2.8
						c-0.1,0.1-0.3,0.2-0.5,0.3l0.3,0.9c1.4-0.2,2.9-0.6,4.4-1.1v-0.9c-1,0.4-2.1,0.7-3.1,0.9c0.9-1,2-2.7,3.3-5.1l-0.9-0.3L52.4,62
						c-0.2,0.3-0.3,0.5-0.5,0.8c-0.7,0.1-1.3,0.2-2,0.3c0.8-1,1.5-2.4,2.3-4.2L51.3,58.6z M60.2,59.2h-5.7v10.7h-1.2v1h8.1v-1h-1.2
						V59.2z M55.5,69.9v-2.7h3.7v2.7H55.5z M55.5,66.3v-2.6h3.7v2.6H55.5z M55.5,62.7v-2.5h3.7v2.5H55.5z M65.2,60h0.9v10H65v-8.6
						c-0.6,0.6-1.4,1.1-2.4,1.4v-1.1c0.4-0.1,0.9-0.3,1.4-0.6C64.5,60.7,64.9,60.4,65.2,60z"/>
				</g>
			</g>
			<rect x="2" y="110" class="st5" width="97" height="50"/>
			<rect y="108" class="st6" width="97" height="50"/>
			<g id="部署组2">
				<g>
					<path id="path-5" d="M22.6,129.4l-0.9,0.3c0.4,0.6,0.6,1.3,0.9,2h-1.9v1h7v-1H26c0.4-0.6,0.7-1.3,1-2.1l-0.9-0.3
						c-0.3,0.9-0.6,1.7-1,2.5h-1.5C23.3,130.8,23,130.1,22.6,129.4z M28.4,127.1v12.2h1v-11.3h2.5c-0.4,1.5-0.9,2.8-1.4,3.9
						c1.1,1.3,1.7,2.4,1.7,3.2c0,0.5-0.1,0.8-0.2,1c-0.1,0.2-0.5,0.3-1,0.3c-0.3,0-0.6,0-1-0.1l0.3,1.1c1.1,0,1.9-0.2,2.3-0.5
						c0.4-0.3,0.5-0.9,0.5-1.8c0-0.8-0.5-1.9-1.6-3.2c0.5-1.3,1-2.6,1.4-4.1v-0.8H28.4z M21,127.9v1h6.6v-1h-2.9l-0.2-0.6
						c-0.1-0.3-0.2-0.6-0.3-0.8l-1,0.2c0.2,0.4,0.4,0.8,0.5,1.3H21z M27.1,134h-5.6v5.3h1v-0.8h3.6v0.8h1V134z M22.5,137.6V135h3.6
						v2.6H22.5z M36,127.1v2.7h4v0.9h-3.7v0.8h3.7v1h-5.2v0.9h6.3c-1.8,0.8-3.9,1.3-6.4,1.5l0.5,0.8c0.7-0.1,1.5-0.3,2.2-0.4v4.2h1
						v-0.6h6v0.6h1v-5.1h-4.9c0.8-0.3,1.6-0.6,2.3-1h4.4v-0.9h-3c0.8-0.6,1.6-1.2,2.3-1.9l-0.8-0.4c-0.8,0.9-1.8,1.7-2.8,2.4H41v-1
						h3v-0.8h-3v-0.9h4.9v-2.7H36z M45,129h-2.1v-1.2H45V129z M42,129h-2v-1.2h2V129z M39.1,129H37v-1.2h2.1V129z M38.5,137h6v1.1
						h-6V137z M44.4,136.2h-6v-1.1h6V136.2z M53.5,136.3c-1.3,0.6-2.9,1.1-4.7,1.4l0.1,1c1.7-0.4,3.2-0.9,4.5-1.5V136.3z
						 M51.3,126.6c-0.6,1.6-1.3,3-2.2,4.2c-0.1,0.2-0.3,0.3-0.4,0.4l0.3,0.9c0.8-0.1,1.7-0.2,2.5-0.3c-0.8,1.3-1.5,2.2-2,2.8
						c-0.1,0.1-0.3,0.2-0.5,0.3l0.3,0.9c1.4-0.2,2.9-0.6,4.4-1.1v-0.9c-1,0.4-2.1,0.7-3.1,0.9c0.9-1,2-2.7,3.3-5.1l-0.9-0.4
						l-0.5,0.9c-0.2,0.3-0.3,0.5-0.5,0.8c-0.7,0.1-1.3,0.2-2,0.3c0.8-1,1.5-2.4,2.3-4.2L51.3,126.6z M60.2,127.2h-5.7v10.7h-1.2v1
						h8.1v-1h-1.2V127.2z M55.5,137.9v-2.7h3.7v2.7H55.5z M55.5,134.3v-2.6h3.7v2.6H55.5z M55.5,130.7v-2.5h3.7v2.5H55.5z
						 M66.3,127.8c0.9,0,1.7,0.3,2.3,0.8c0.6,0.5,0.9,1.2,0.9,2.1s-0.3,1.7-1,2.4c-0.3,0.3-0.9,0.8-1.8,1.5l-0.2,0.2
						c-1.3,0.9-2,1.6-2.2,2.3h5.2v1h-6.7c0-0.9,0.3-1.7,1-2.5c0.4-0.4,1.1-1.1,2.2-1.8l0.4-0.3c0.6-0.4,0.9-0.7,1.2-1
						c0.5-0.5,0.8-1.1,0.8-1.8c0-0.6-0.2-1.1-0.5-1.4c-0.4-0.3-0.9-0.5-1.5-0.5c-0.6,0-1.1,0.2-1.5,0.6l-0.1,0.1
						c-0.4,0.4-0.6,1.1-0.6,2H63c0-1.1,0.3-2,0.9-2.7C64.5,128.1,65.3,127.8,66.3,127.8z"/>
				</g>
				<g>
					<path class="st1" d="M22.6,129.4l-0.9,0.3c0.4,0.6,0.6,1.3,0.9,2h-1.9v1h7v-1H26c0.4-0.6,0.7-1.3,1-2.1l-0.9-0.3
						c-0.3,0.9-0.6,1.7-1,2.5h-1.5C23.3,130.8,23,130.1,22.6,129.4z M28.4,127.1v12.2h1v-11.3h2.5c-0.4,1.5-0.9,2.8-1.4,3.9
						c1.1,1.3,1.7,2.4,1.7,3.2c0,0.5-0.1,0.8-0.2,1c-0.1,0.2-0.5,0.3-1,0.3c-0.3,0-0.6,0-1-0.1l0.3,1.1c1.1,0,1.9-0.2,2.3-0.5
						c0.4-0.3,0.5-0.9,0.5-1.8c0-0.8-0.5-1.9-1.6-3.2c0.5-1.3,1-2.6,1.4-4.1v-0.8H28.4z M21,127.9v1h6.6v-1h-2.9l-0.2-0.6
						c-0.1-0.3-0.2-0.6-0.3-0.8l-1,0.2c0.2,0.4,0.4,0.8,0.5,1.3H21z M27.1,134h-5.6v5.3h1v-0.8h3.6v0.8h1V134z M22.5,137.6V135h3.6
						v2.6H22.5z M36,127.1v2.7h4v0.9h-3.7v0.8h3.7v1h-5.2v0.9h6.3c-1.8,0.8-3.9,1.3-6.4,1.5l0.5,0.8c0.7-0.1,1.5-0.3,2.2-0.4v4.2h1
						v-0.6h6v0.6h1v-5.1h-4.9c0.8-0.3,1.6-0.6,2.3-1h4.4v-0.9h-3c0.8-0.6,1.6-1.2,2.3-1.9l-0.8-0.4c-0.8,0.9-1.8,1.7-2.8,2.4H41v-1
						h3v-0.8h-3v-0.9h4.9v-2.7H36z M45,129h-2.1v-1.2H45V129z M42,129h-2v-1.2h2V129z M39.1,129H37v-1.2h2.1V129z M38.5,137h6v1.1
						h-6V137z M44.4,136.2h-6v-1.1h6V136.2z M53.5,136.3c-1.3,0.6-2.9,1.1-4.7,1.4l0.1,1c1.7-0.4,3.2-0.9,4.5-1.5V136.3z
						 M51.3,126.6c-0.6,1.6-1.3,3-2.2,4.2c-0.1,0.2-0.3,0.3-0.4,0.4l0.3,0.9c0.8-0.1,1.7-0.2,2.5-0.3c-0.8,1.3-1.5,2.2-2,2.8
						c-0.1,0.1-0.3,0.2-0.5,0.3l0.3,0.9c1.4-0.2,2.9-0.6,4.4-1.1v-0.9c-1,0.4-2.1,0.7-3.1,0.9c0.9-1,2-2.7,3.3-5.1l-0.9-0.4
						l-0.5,0.9c-0.2,0.3-0.3,0.5-0.5,0.8c-0.7,0.1-1.3,0.2-2,0.3c0.8-1,1.5-2.4,2.3-4.2L51.3,126.6z M60.2,127.2h-5.7v10.7h-1.2v1
						h8.1v-1h-1.2V127.2z M55.5,137.9v-2.7h3.7v2.7H55.5z M55.5,134.3v-2.6h3.7v2.6H55.5z M55.5,130.7v-2.5h3.7v2.5H55.5z
						 M66.3,127.8c0.9,0,1.7,0.3,2.3,0.8c0.6,0.5,0.9,1.2,0.9,2.1s-0.3,1.7-1,2.4c-0.3,0.3-0.9,0.8-1.8,1.5l-0.2,0.2
						c-1.3,0.9-2,1.6-2.2,2.3h5.2v1h-6.7c0-0.9,0.3-1.7,1-2.5c0.4-0.4,1.1-1.1,2.2-1.8l0.4-0.3c0.6-0.4,0.9-0.7,1.2-1
						c0.5-0.5,0.8-1.1,0.8-1.8c0-0.6-0.2-1.1-0.5-1.4c-0.4-0.3-0.9-0.5-1.5-0.5c-0.6,0-1.1,0.2-1.5,0.6l-0.1,0.1
						c-0.4,0.4-0.6,1.1-0.6,2H63c0-1.1,0.3-2,0.9-2.7C64.5,128.1,65.3,127.8,66.3,127.8z"/>
				</g>
			</g>
			<rect x="151" y="42" class="st5" width="97" height="50"/>
			<rect x="149" y="40" class="st6" width="97" height="50"/>
			<g id="部署组3">
				<g>
					<path id="path-6" d="M171.6,61.4l-0.9,0.3c0.4,0.6,0.6,1.3,0.9,2h-1.9v1h7v-1H175c0.4-0.6,0.7-1.3,1-2.1l-0.9-0.3
						c-0.3,0.9-0.6,1.7-1,2.5h-1.5C172.3,62.8,172,62.1,171.6,61.4z M177.4,59.1v12.2h1V60.1h2.5c-0.4,1.5-0.9,2.8-1.4,3.9
						c1.1,1.3,1.7,2.4,1.7,3.2c0,0.5-0.1,0.8-0.2,1c-0.1,0.2-0.5,0.3-1,0.3c-0.3,0-0.6,0-1-0.1l0.3,1.1c1.1,0,1.9-0.2,2.3-0.5
						c0.4-0.3,0.5-0.9,0.5-1.8c0-0.8-0.5-1.9-1.6-3.2c0.5-1.3,1-2.6,1.4-4.1v-0.8H177.4z M170,59.9v1h6.7v-1h-2.9l-0.2-0.6
						c-0.1-0.3-0.2-0.6-0.3-0.8l-1,0.2c0.2,0.4,0.4,0.8,0.5,1.3H170z M176.1,66h-5.6v5.3h1v-0.8h3.6v0.8h1V66z M171.5,69.6V67h3.6
						v2.6H171.5z M185,59.1v2.7h4v0.9h-3.7v0.8h3.7v1h-5.2v0.9h6.3c-1.8,0.8-3.9,1.3-6.4,1.5l0.5,0.8c0.7-0.1,1.5-0.3,2.2-0.4v4.2h1
						v-0.6h5.9v0.6h1v-5.1h-4.9c0.8-0.3,1.6-0.6,2.3-1h4.4v-0.9h-3c0.8-0.6,1.6-1.2,2.3-1.9l-0.8-0.4c-0.8,0.9-1.8,1.7-2.8,2.4H190
						v-1h3v-0.8h-3v-0.9h4.9v-2.7H185z M194,61h-2.1v-1.2h2.1V61z M191,61h-2v-1.2h2V61z M188.1,61H186v-1.2h2.1V61z M187.5,69h5.9
						V70h-5.9V69z M193.4,68.2h-5.9v-1.1h5.9V68.2z M202.5,68.3c-1.3,0.6-2.9,1.1-4.7,1.4l0.1,1c1.7-0.4,3.2-0.9,4.5-1.5V68.3z
						 M200.3,58.6c-0.6,1.6-1.3,3-2.2,4.2c-0.1,0.2-0.3,0.3-0.4,0.4l0.3,0.9c0.8-0.1,1.7-0.2,2.5-0.4c-0.8,1.3-1.5,2.2-2,2.8
						c-0.1,0.1-0.3,0.2-0.5,0.3l0.3,0.9c1.4-0.2,2.9-0.6,4.4-1.1v-0.9c-1,0.4-2.1,0.7-3.1,0.9c0.9-1,2-2.7,3.3-5.1l-0.9-0.3
						l-0.5,0.9c-0.2,0.3-0.3,0.5-0.5,0.8c-0.7,0.1-1.3,0.2-2,0.3c0.8-1,1.5-2.4,2.3-4.2L200.3,58.6z M209.2,59.2h-5.7v10.7h-1.2v1
						h8.1v-1h-1.2V59.2z M204.5,69.9v-2.7h3.7v2.7H204.5z M204.5,66.3v-2.6h3.7v2.6H204.5z M204.5,62.7v-2.5h3.7v2.5H204.5z
						 M215.3,59.8c1,0,1.7,0.2,2.3,0.7c0.6,0.5,0.9,1.1,0.9,2c0,1.1-0.5,1.9-1.6,2.2c0.6,0.2,1,0.5,1.3,0.9c0.3,0.4,0.5,0.9,0.5,1.5
						c0,0.9-0.3,1.7-1,2.2c-0.6,0.6-1.5,0.9-2.5,0.9c-1,0-1.7-0.3-2.3-0.7c-0.7-0.6-1.1-1.4-1.2-2.6h1.2c0,0.8,0.3,1.4,0.8,1.8
						c0.4,0.3,0.9,0.5,1.6,0.5c0.7,0,1.3-0.2,1.7-0.6c0.4-0.4,0.6-0.9,0.6-1.5c0-0.6-0.2-1.1-0.6-1.4c-0.4-0.3-0.9-0.5-1.6-0.5h-0.8
						v-0.9h0.8c0.7,0,1.2-0.2,1.5-0.4c0.3-0.3,0.5-0.7,0.5-1.3c0-0.6-0.2-1-0.5-1.3c-0.4-0.3-0.9-0.5-1.5-0.5
						c-0.7,0-1.2,0.2-1.6,0.5c-0.4,0.4-0.6,0.9-0.7,1.6h-1.1c0.1-1,0.4-1.7,1.1-2.3C213.6,60.1,214.3,59.8,215.3,59.8z"/>
				</g>
				<g>
					<path class="st1" d="M171.6,61.4l-0.9,0.3c0.4,0.6,0.6,1.3,0.9,2h-1.9v1h7v-1H175c0.4-0.6,0.7-1.3,1-2.1l-0.9-0.3
						c-0.3,0.9-0.6,1.7-1,2.5h-1.5C172.3,62.8,172,62.1,171.6,61.4z M177.4,59.1v12.2h1V60.1h2.5c-0.4,1.5-0.9,2.8-1.4,3.9
						c1.1,1.3,1.7,2.4,1.7,3.2c0,0.5-0.1,0.8-0.2,1c-0.1,0.2-0.5,0.3-1,0.3c-0.3,0-0.6,0-1-0.1l0.3,1.1c1.1,0,1.9-0.2,2.3-0.5
						c0.4-0.3,0.5-0.9,0.5-1.8c0-0.8-0.5-1.9-1.6-3.2c0.5-1.3,1-2.6,1.4-4.1v-0.8H177.4z M170,59.9v1h6.7v-1h-2.9l-0.2-0.6
						c-0.1-0.3-0.2-0.6-0.3-0.8l-1,0.2c0.2,0.4,0.4,0.8,0.5,1.3H170z M176.1,66h-5.6v5.3h1v-0.8h3.6v0.8h1V66z M171.5,69.6V67h3.6
						v2.6H171.5z M185,59.1v2.7h4v0.9h-3.7v0.8h3.7v1h-5.2v0.9h6.3c-1.8,0.8-3.9,1.3-6.4,1.5l0.5,0.8c0.7-0.1,1.5-0.3,2.2-0.4v4.2h1
						v-0.6h5.9v0.6h1v-5.1h-4.9c0.8-0.3,1.6-0.6,2.3-1h4.4v-0.9h-3c0.8-0.6,1.6-1.2,2.3-1.9l-0.8-0.4c-0.8,0.9-1.8,1.7-2.8,2.4H190
						v-1h3v-0.8h-3v-0.9h4.9v-2.7H185z M194,61h-2.1v-1.2h2.1V61z M191,61h-2v-1.2h2V61z M188.1,61H186v-1.2h2.1V61z M187.5,69h5.9
						V70h-5.9V69z M193.4,68.2h-5.9v-1.1h5.9V68.2z M202.5,68.3c-1.3,0.6-2.9,1.1-4.7,1.4l0.1,1c1.7-0.4,3.2-0.9,4.5-1.5V68.3z
						 M200.3,58.6c-0.6,1.6-1.3,3-2.2,4.2c-0.1,0.2-0.3,0.3-0.4,0.4l0.3,0.9c0.8-0.1,1.7-0.2,2.5-0.4c-0.8,1.3-1.5,2.2-2,2.8
						c-0.1,0.1-0.3,0.2-0.5,0.3l0.3,0.9c1.4-0.2,2.9-0.6,4.4-1.1v-0.9c-1,0.4-2.1,0.7-3.1,0.9c0.9-1,2-2.7,3.3-5.1l-0.9-0.3
						l-0.5,0.9c-0.2,0.3-0.3,0.5-0.5,0.8c-0.7,0.1-1.3,0.2-2,0.3c0.8-1,1.5-2.4,2.3-4.2L200.3,58.6z M209.2,59.2h-5.7v10.7h-1.2v1
						h8.1v-1h-1.2V59.2z M204.5,69.9v-2.7h3.7v2.7H204.5z M204.5,66.3v-2.6h3.7v2.6H204.5z M204.5,62.7v-2.5h3.7v2.5H204.5z
						 M215.3,59.8c1,0,1.7,0.2,2.3,0.7c0.6,0.5,0.9,1.1,0.9,2c0,1.1-0.5,1.9-1.6,2.2c0.6,0.2,1,0.5,1.3,0.9c0.3,0.4,0.5,0.9,0.5,1.5
						c0,0.9-0.3,1.7-1,2.2c-0.6,0.6-1.5,0.9-2.5,0.9c-1,0-1.7-0.3-2.3-0.7c-0.7-0.6-1.1-1.4-1.2-2.6h1.2c0,0.8,0.3,1.4,0.8,1.8
						c0.4,0.3,0.9,0.5,1.6,0.5c0.7,0,1.3-0.2,1.7-0.6c0.4-0.4,0.6-0.9,0.6-1.5c0-0.6-0.2-1.1-0.6-1.4c-0.4-0.3-0.9-0.5-1.6-0.5h-0.8
						v-0.9h0.8c0.7,0,1.2-0.2,1.5-0.4c0.3-0.3,0.5-0.7,0.5-1.3c0-0.6-0.2-1-0.5-1.3c-0.4-0.3-0.9-0.5-1.5-0.5
						c-0.7,0-1.2,0.2-1.6,0.5c-0.4,0.4-0.6,0.9-0.7,1.6h-1.1c0.1-1,0.4-1.7,1.1-2.3C213.6,60.1,214.3,59.8,215.3,59.8z"/>
				</g>
			</g>
			<rect x="151" y="110" class="st5" width="97" height="50"/>
			<rect x="149" y="108" class="st6" width="97" height="50"/>
			<g id="部署组4">
				<g>
					<path id="path-7" d="M171.6,129.4l-0.9,0.3c0.4,0.6,0.6,1.3,0.9,2h-1.9v1h7v-1H175c0.4-0.6,0.7-1.3,1-2.1l-0.9-0.3
						c-0.3,0.9-0.6,1.7-1,2.5h-1.5C172.3,130.8,172,130.1,171.6,129.4z M177.4,127.1v12.2h1v-11.3h2.5c-0.4,1.5-0.9,2.8-1.4,3.9
						c1.1,1.3,1.7,2.4,1.7,3.2c0,0.5-0.1,0.8-0.2,1c-0.1,0.2-0.5,0.3-1,0.3c-0.3,0-0.6,0-1-0.1l0.3,1.1c1.1,0,1.9-0.2,2.3-0.5
						c0.4-0.3,0.5-0.9,0.5-1.8c0-0.8-0.5-1.9-1.6-3.2c0.5-1.3,1-2.6,1.4-4.1v-0.8H177.4z M170,127.9v1h6.7v-1h-2.9l-0.2-0.6
						c-0.1-0.3-0.2-0.6-0.3-0.8l-1,0.2c0.2,0.4,0.4,0.8,0.5,1.3H170z M176.1,134h-5.6v5.3h1v-0.8h3.6v0.8h1V134z M171.5,137.6V135
						h3.6v2.6H171.5z M185,127.1v2.7h4v0.9h-3.7v0.8h3.7v1h-5.2v0.9h6.3c-1.8,0.8-3.9,1.3-6.4,1.5l0.5,0.8c0.7-0.1,1.5-0.3,2.2-0.4
						v4.2h1v-0.6h5.9v0.6h1v-5.1h-4.9c0.8-0.3,1.6-0.6,2.3-1h4.4v-0.9h-3c0.8-0.6,1.6-1.2,2.3-1.9l-0.8-0.4
						c-0.8,0.9-1.8,1.7-2.8,2.4H190v-1h3v-0.8h-3v-0.9h4.9v-2.7H185z M194,129h-2.1v-1.2h2.1V129z M191,129h-2v-1.2h2V129z
						 M188.1,129H186v-1.2h2.1V129z M187.5,137h5.9v1.1h-5.9V137z M193.4,136.2h-5.9v-1.1h5.9V136.2z M202.5,136.3
						c-1.3,0.6-2.9,1.1-4.7,1.4l0.1,1c1.7-0.4,3.2-0.9,4.5-1.5V136.3z M200.3,126.6c-0.6,1.6-1.3,3-2.2,4.2
						c-0.1,0.2-0.3,0.3-0.4,0.4l0.3,0.9c0.8-0.1,1.7-0.2,2.5-0.3c-0.8,1.3-1.5,2.2-2,2.8c-0.1,0.1-0.3,0.2-0.5,0.3l0.3,0.9
						c1.4-0.2,2.9-0.6,4.4-1.1v-0.9c-1,0.4-2.1,0.7-3.1,0.9c0.9-1,2-2.7,3.3-5.1l-0.9-0.4l-0.5,0.9c-0.2,0.3-0.3,0.5-0.5,0.8
						c-0.7,0.1-1.3,0.2-2,0.3c0.8-1,1.5-2.4,2.3-4.2L200.3,126.6z M209.2,127.2h-5.7v10.7h-1.2v1h8.1v-1h-1.2V127.2z M204.5,137.9
						v-2.7h3.7v2.7H204.5z M204.5,134.3v-2.6h3.7v2.6H204.5z M204.5,130.7v-2.5h3.7v2.5H204.5z M216.4,128l-5,6.6v1.1h5v2.3h1.1
						v-2.3h1.6v-0.9h-1.6V128H216.4z M216.3,129.5L216.3,129.5l0,5.3h-4.1L216.3,129.5z"/>
				</g>
				<g>
					<path class="st1" d="M171.6,129.4l-0.9,0.3c0.4,0.6,0.6,1.3,0.9,2h-1.9v1h7v-1H175c0.4-0.6,0.7-1.3,1-2.1l-0.9-0.3
						c-0.3,0.9-0.6,1.7-1,2.5h-1.5C172.3,130.8,172,130.1,171.6,129.4z M177.4,127.1v12.2h1v-11.3h2.5c-0.4,1.5-0.9,2.8-1.4,3.9
						c1.1,1.3,1.7,2.4,1.7,3.2c0,0.5-0.1,0.8-0.2,1c-0.1,0.2-0.5,0.3-1,0.3c-0.3,0-0.6,0-1-0.1l0.3,1.1c1.1,0,1.9-0.2,2.3-0.5
						c0.4-0.3,0.5-0.9,0.5-1.8c0-0.8-0.5-1.9-1.6-3.2c0.5-1.3,1-2.6,1.4-4.1v-0.8H177.4z M170,127.9v1h6.7v-1h-2.9l-0.2-0.6
						c-0.1-0.3-0.2-0.6-0.3-0.8l-1,0.2c0.2,0.4,0.4,0.8,0.5,1.3H170z M176.1,134h-5.6v5.3h1v-0.8h3.6v0.8h1V134z M171.5,137.6V135
						h3.6v2.6H171.5z M185,127.1v2.7h4v0.9h-3.7v0.8h3.7v1h-5.2v0.9h6.3c-1.8,0.8-3.9,1.3-6.4,1.5l0.5,0.8c0.7-0.1,1.5-0.3,2.2-0.4
						v4.2h1v-0.6h5.9v0.6h1v-5.1h-4.9c0.8-0.3,1.6-0.6,2.3-1h4.4v-0.9h-3c0.8-0.6,1.6-1.2,2.3-1.9l-0.8-0.4
						c-0.8,0.9-1.8,1.7-2.8,2.4H190v-1h3v-0.8h-3v-0.9h4.9v-2.7H185z M194,129h-2.1v-1.2h2.1V129z M191,129h-2v-1.2h2V129z
						 M188.1,129H186v-1.2h2.1V129z M187.5,137h5.9v1.1h-5.9V137z M193.4,136.2h-5.9v-1.1h5.9V136.2z M202.5,136.3
						c-1.3,0.6-2.9,1.1-4.7,1.4l0.1,1c1.7-0.4,3.2-0.9,4.5-1.5V136.3z M200.3,126.6c-0.6,1.6-1.3,3-2.2,4.2
						c-0.1,0.2-0.3,0.3-0.4,0.4l0.3,0.9c0.8-0.1,1.7-0.2,2.5-0.3c-0.8,1.3-1.5,2.2-2,2.8c-0.1,0.1-0.3,0.2-0.5,0.3l0.3,0.9
						c1.4-0.2,2.9-0.6,4.4-1.1v-0.9c-1,0.4-2.1,0.7-3.1,0.9c0.9-1,2-2.7,3.3-5.1l-0.9-0.4l-0.5,0.9c-0.2,0.3-0.3,0.5-0.5,0.8
						c-0.7,0.1-1.3,0.2-2,0.3c0.8-1,1.5-2.4,2.3-4.2L200.3,126.6z M209.2,127.2h-5.7v10.7h-1.2v1h8.1v-1h-1.2V127.2z M204.5,137.9
						v-2.7h3.7v2.7H204.5z M204.5,134.3v-2.6h3.7v2.6H204.5z M204.5,130.7v-2.5h3.7v2.5H204.5z M216.4,128l-5,6.6v1.1h5v2.3h1.1
						v-2.3h1.6v-0.9h-1.6V128H216.4z M216.3,129.5L216.3,129.5l0,5.3h-4.1L216.3,129.5z"/>
				</g>
			</g>
			<rect x="313" y="42" class="st5" width="97" height="50"/>
			<rect x="311" y="40" class="st6" width="97" height="50"/>
			<g id="部署组5">
				<g>
					<path id="path-8" d="M333.6,61.4l-0.9,0.3c0.4,0.6,0.6,1.3,0.9,2h-1.9v1h7v-1H337c0.4-0.6,0.7-1.3,1-2.1l-0.9-0.3
						c-0.3,0.9-0.6,1.7-1,2.5h-1.5C334.3,62.8,334,62.1,333.6,61.4z M339.4,59.1v12.2h1V60.1h2.5c-0.4,1.5-0.9,2.8-1.4,3.9
						c1.1,1.3,1.7,2.4,1.7,3.2c0,0.5-0.1,0.8-0.2,1c-0.1,0.2-0.5,0.3-1,0.3c-0.3,0-0.6,0-1-0.1l0.3,1.1c1.1,0,1.9-0.2,2.3-0.5
						c0.4-0.3,0.5-0.9,0.5-1.8c0-0.8-0.5-1.9-1.6-3.2c0.5-1.3,1-2.6,1.4-4.1v-0.8H339.4z M332,59.9v1h6.6v-1h-2.9l-0.2-0.6
						c-0.1-0.3-0.2-0.6-0.3-0.8l-1,0.2c0.2,0.4,0.4,0.8,0.5,1.3H332z M338.1,66h-5.6v5.3h1v-0.8h3.6v0.8h1V66z M333.5,69.6V67h3.6
						v2.6H333.5z M347,59.1v2.7h4v0.9h-3.7v0.8h3.7v1h-5.2v0.9h6.3c-1.8,0.8-3.9,1.3-6.4,1.5l0.5,0.8c0.7-0.1,1.5-0.3,2.2-0.4v4.2h1
						v-0.6h6v0.6h1v-5.1h-4.9c0.8-0.3,1.6-0.6,2.3-1h4.4v-0.9h-3c0.8-0.6,1.6-1.2,2.3-1.9l-0.8-0.4c-0.8,0.9-1.8,1.7-2.8,2.4H352v-1
						h3v-0.8h-3v-0.9h4.9v-2.7H347z M356,61h-2.1v-1.2h2.1V61z M353,61h-2v-1.2h2V61z M350.1,61H348v-1.2h2.1V61z M349.5,69h6V70h-6
						V69z M355.4,68.2h-6v-1.1h6V68.2z M364.5,68.3c-1.3,0.6-2.9,1.1-4.7,1.4l0.1,1c1.7-0.4,3.2-0.9,4.5-1.5V68.3z M362.3,58.6
						c-0.6,1.6-1.3,3-2.2,4.2c-0.1,0.2-0.3,0.3-0.4,0.4l0.3,0.9c0.8-0.1,1.7-0.2,2.5-0.4c-0.8,1.3-1.5,2.2-2,2.8
						c-0.1,0.1-0.3,0.2-0.5,0.3l0.3,0.9c1.4-0.2,2.9-0.6,4.4-1.1v-0.9c-1,0.4-2.1,0.7-3.1,0.9c0.9-1,2-2.7,3.3-5.1l-0.9-0.3
						l-0.5,0.9c-0.2,0.3-0.3,0.5-0.5,0.8c-0.7,0.1-1.3,0.2-2,0.3c0.8-1,1.5-2.4,2.3-4.2L362.3,58.6z M371.2,59.2h-5.7v10.7h-1.2v1
						h8.1v-1h-1.2V59.2z M366.5,69.9v-2.7h3.7v2.7H366.5z M366.5,66.3v-2.6h3.7v2.6H366.5z M366.5,62.7v-2.5h3.7v2.5H366.5z
						 M374.5,60h5.8v1h-4.9l-0.3,3.3h0.1c0.3-0.3,0.6-0.6,1.1-0.8c0.4-0.2,0.8-0.2,1.3-0.2c1,0,1.7,0.3,2.3,0.9
						c0.6,0.6,0.9,1.5,0.9,2.5c0,1-0.4,1.8-1.1,2.5c-0.7,0.6-1.5,0.9-2.5,0.9c-0.9,0-1.6-0.2-2.3-0.7c-0.7-0.5-1.1-1.3-1.1-2.2h1.1
						c0.1,0.6,0.3,1.1,0.8,1.5c0.4,0.3,0.9,0.4,1.5,0.4c0.7,0,1.3-0.2,1.7-0.7c0.4-0.4,0.7-1,0.7-1.7c0-0.8-0.2-1.4-0.6-1.8
						c-0.4-0.4-1-0.7-1.7-0.7c-0.5,0-0.9,0.1-1.3,0.3c-0.4,0.2-0.7,0.5-0.9,0.9h-1.1L374.5,60z"/>
				</g>
				<g>
					<path class="st1" d="M333.6,61.4l-0.9,0.3c0.4,0.6,0.6,1.3,0.9,2h-1.9v1h7v-1H337c0.4-0.6,0.7-1.3,1-2.1l-0.9-0.3
						c-0.3,0.9-0.6,1.7-1,2.5h-1.5C334.3,62.8,334,62.1,333.6,61.4z M339.4,59.1v12.2h1V60.1h2.5c-0.4,1.5-0.9,2.8-1.4,3.9
						c1.1,1.3,1.7,2.4,1.7,3.2c0,0.5-0.1,0.8-0.2,1c-0.1,0.2-0.5,0.3-1,0.3c-0.3,0-0.6,0-1-0.1l0.3,1.1c1.1,0,1.9-0.2,2.3-0.5
						c0.4-0.3,0.5-0.9,0.5-1.8c0-0.8-0.5-1.9-1.6-3.2c0.5-1.3,1-2.6,1.4-4.1v-0.8H339.4z M332,59.9v1h6.6v-1h-2.9l-0.2-0.6
						c-0.1-0.3-0.2-0.6-0.3-0.8l-1,0.2c0.2,0.4,0.4,0.8,0.5,1.3H332z M338.1,66h-5.6v5.3h1v-0.8h3.6v0.8h1V66z M333.5,69.6V67h3.6
						v2.6H333.5z M347,59.1v2.7h4v0.9h-3.7v0.8h3.7v1h-5.2v0.9h6.3c-1.8,0.8-3.9,1.3-6.4,1.5l0.5,0.8c0.7-0.1,1.5-0.3,2.2-0.4v4.2h1
						v-0.6h6v0.6h1v-5.1h-4.9c0.8-0.3,1.6-0.6,2.3-1h4.4v-0.9h-3c0.8-0.6,1.6-1.2,2.3-1.9l-0.8-0.4c-0.8,0.9-1.8,1.7-2.8,2.4H352v-1
						h3v-0.8h-3v-0.9h4.9v-2.7H347z M356,61h-2.1v-1.2h2.1V61z M353,61h-2v-1.2h2V61z M350.1,61H348v-1.2h2.1V61z M349.5,69h6V70h-6
						V69z M355.4,68.2h-6v-1.1h6V68.2z M364.5,68.3c-1.3,0.6-2.9,1.1-4.7,1.4l0.1,1c1.7-0.4,3.2-0.9,4.5-1.5V68.3z M362.3,58.6
						c-0.6,1.6-1.3,3-2.2,4.2c-0.1,0.2-0.3,0.3-0.4,0.4l0.3,0.9c0.8-0.1,1.7-0.2,2.5-0.4c-0.8,1.3-1.5,2.2-2,2.8
						c-0.1,0.1-0.3,0.2-0.5,0.3l0.3,0.9c1.4-0.2,2.9-0.6,4.4-1.1v-0.9c-1,0.4-2.1,0.7-3.1,0.9c0.9-1,2-2.7,3.3-5.1l-0.9-0.3
						l-0.5,0.9c-0.2,0.3-0.3,0.5-0.5,0.8c-0.7,0.1-1.3,0.2-2,0.3c0.8-1,1.5-2.4,2.3-4.2L362.3,58.6z M371.2,59.2h-5.7v10.7h-1.2v1
						h8.1v-1h-1.2V59.2z M366.5,69.9v-2.7h3.7v2.7H366.5z M366.5,66.3v-2.6h3.7v2.6H366.5z M366.5,62.7v-2.5h3.7v2.5H366.5z
						 M374.5,60h5.8v1h-4.9l-0.3,3.3h0.1c0.3-0.3,0.6-0.6,1.1-0.8c0.4-0.2,0.8-0.2,1.3-0.2c1,0,1.7,0.3,2.3,0.9
						c0.6,0.6,0.9,1.5,0.9,2.5c0,1-0.4,1.8-1.1,2.5c-0.7,0.6-1.5,0.9-2.5,0.9c-0.9,0-1.6-0.2-2.3-0.7c-0.7-0.5-1.1-1.3-1.1-2.2h1.1
						c0.1,0.6,0.3,1.1,0.8,1.5c0.4,0.3,0.9,0.4,1.5,0.4c0.7,0,1.3-0.2,1.7-0.7c0.4-0.4,0.7-1,0.7-1.7c0-0.8-0.2-1.4-0.6-1.8
						c-0.4-0.4-1-0.7-1.7-0.7c-0.5,0-0.9,0.1-1.3,0.3c-0.4,0.2-0.7,0.5-0.9,0.9h-1.1L374.5,60z"/>
				</g>
			</g>
			<rect x="313" y="110" class="st5" width="97" height="50"/>
			<rect x="311" y="108" class="st6" width="97" height="50"/>
			<g id="部署组6">
				<g>
					<path id="path-9" d="M333.6,129.4l-0.9,0.3c0.4,0.6,0.6,1.3,0.9,2h-1.9v1h7v-1H337c0.4-0.6,0.7-1.3,1-2.1l-0.9-0.3
						c-0.3,0.9-0.6,1.7-1,2.5h-1.5C334.3,130.8,334,130.1,333.6,129.4z M339.4,127.1v12.2h1v-11.3h2.5c-0.4,1.5-0.9,2.8-1.4,3.9
						c1.1,1.3,1.7,2.4,1.7,3.2c0,0.5-0.1,0.8-0.2,1c-0.1,0.2-0.5,0.3-1,0.3c-0.3,0-0.6,0-1-0.1l0.3,1.1c1.1,0,1.9-0.2,2.3-0.5
						c0.4-0.3,0.5-0.9,0.5-1.8c0-0.8-0.5-1.9-1.6-3.2c0.5-1.3,1-2.6,1.4-4.1v-0.8H339.4z M332,127.9v1h6.6v-1h-2.9l-0.2-0.6
						c-0.1-0.3-0.2-0.6-0.3-0.8l-1,0.2c0.2,0.4,0.4,0.8,0.5,1.3H332z M338.1,134h-5.6v5.3h1v-0.8h3.6v0.8h1V134z M333.5,137.6V135
						h3.6v2.6H333.5z M347,127.1v2.7h4v0.9h-3.7v0.8h3.7v1h-5.2v0.9h6.3c-1.8,0.8-3.9,1.3-6.4,1.5l0.5,0.8c0.7-0.1,1.5-0.3,2.2-0.4
						v4.2h1v-0.6h6v0.6h1v-5.1h-4.9c0.8-0.3,1.6-0.6,2.3-1h4.4v-0.9h-3c0.8-0.6,1.6-1.2,2.3-1.9l-0.8-0.4c-0.8,0.9-1.8,1.7-2.8,2.4
						H352v-1h3v-0.8h-3v-0.9h4.9v-2.7H347z M356,129h-2.1v-1.2h2.1V129z M353,129h-2v-1.2h2V129z M350.1,129H348v-1.2h2.1V129z
						 M349.5,137h6v1.1h-6V137z M355.4,136.2h-6v-1.1h6V136.2z M364.5,136.3c-1.3,0.6-2.9,1.1-4.7,1.4l0.1,1
						c1.7-0.4,3.2-0.9,4.5-1.5V136.3z M362.3,126.6c-0.6,1.6-1.3,3-2.2,4.2c-0.1,0.2-0.3,0.3-0.4,0.4l0.3,0.9
						c0.8-0.1,1.7-0.2,2.5-0.3c-0.8,1.3-1.5,2.2-2,2.8c-0.1,0.1-0.3,0.2-0.5,0.3l0.3,0.9c1.4-0.2,2.9-0.6,4.4-1.1v-0.9
						c-1,0.4-2.1,0.7-3.1,0.9c0.9-1,2-2.7,3.3-5.1l-0.9-0.4l-0.5,0.9c-0.2,0.3-0.3,0.5-0.5,0.8c-0.7,0.1-1.3,0.2-2,0.3
						c0.8-1,1.5-2.4,2.3-4.2L362.3,126.6z M371.2,127.2h-5.7v10.7h-1.2v1h8.1v-1h-1.2V127.2z M366.5,137.9v-2.7h3.7v2.7H366.5z
						 M366.5,134.3v-2.6h3.7v2.6H366.5z M366.5,130.7v-2.5h3.7v2.5H366.5z M377.3,127.8c-1.1,0-2,0.5-2.7,1.6
						c-0.6,1-0.9,2.3-0.9,3.9c0,1.5,0.3,2.7,0.9,3.6c0.6,0.9,1.5,1.4,2.7,1.4c1,0,1.8-0.3,2.4-1c0.6-0.6,1-1.5,1-2.4
						c0-1-0.3-1.8-0.9-2.4c-0.6-0.6-1.4-0.9-2.3-0.9c-0.6,0-1.1,0.1-1.6,0.4c-0.5,0.3-0.8,0.7-1.1,1.2h-0.1l0-0.3l0,0l0-0.1
						c0-1.1,0.2-2.1,0.7-2.8c0.4-0.8,1.1-1.2,1.8-1.2c1.2,0,1.8,0.6,2.1,1.7h1.1C380.3,128.7,379.2,127.8,377.3,127.8z M377.3,132.4
						c0.7,0,1.2,0.2,1.7,0.7c0.4,0.4,0.6,1,0.6,1.7c0,0.7-0.2,1.3-0.6,1.8c-0.4,0.4-1,0.7-1.6,0.7c-0.7,0-1.2-0.2-1.7-0.7
						c-0.4-0.4-0.6-1-0.6-1.7c0-0.7,0.2-1.3,0.6-1.7S376.6,132.4,377.3,132.4z"/>
				</g>
				<g>
					<path class="st1" d="M333.6,129.4l-0.9,0.3c0.4,0.6,0.6,1.3,0.9,2h-1.9v1h7v-1H337c0.4-0.6,0.7-1.3,1-2.1l-0.9-0.3
						c-0.3,0.9-0.6,1.7-1,2.5h-1.5C334.3,130.8,334,130.1,333.6,129.4z M339.4,127.1v12.2h1v-11.3h2.5c-0.4,1.5-0.9,2.8-1.4,3.9
						c1.1,1.3,1.7,2.4,1.7,3.2c0,0.5-0.1,0.8-0.2,1c-0.1,0.2-0.5,0.3-1,0.3c-0.3,0-0.6,0-1-0.1l0.3,1.1c1.1,0,1.9-0.2,2.3-0.5
						c0.4-0.3,0.5-0.9,0.5-1.8c0-0.8-0.5-1.9-1.6-3.2c0.5-1.3,1-2.6,1.4-4.1v-0.8H339.4z M332,127.9v1h6.6v-1h-2.9l-0.2-0.6
						c-0.1-0.3-0.2-0.6-0.3-0.8l-1,0.2c0.2,0.4,0.4,0.8,0.5,1.3H332z M338.1,134h-5.6v5.3h1v-0.8h3.6v0.8h1V134z M333.5,137.6V135
						h3.6v2.6H333.5z M347,127.1v2.7h4v0.9h-3.7v0.8h3.7v1h-5.2v0.9h6.3c-1.8,0.8-3.9,1.3-6.4,1.5l0.5,0.8c0.7-0.1,1.5-0.3,2.2-0.4
						v4.2h1v-0.6h6v0.6h1v-5.1h-4.9c0.8-0.3,1.6-0.6,2.3-1h4.4v-0.9h-3c0.8-0.6,1.6-1.2,2.3-1.9l-0.8-0.4c-0.8,0.9-1.8,1.7-2.8,2.4
						H352v-1h3v-0.8h-3v-0.9h4.9v-2.7H347z M356,129h-2.1v-1.2h2.1V129z M353,129h-2v-1.2h2V129z M350.1,129H348v-1.2h2.1V129z
						 M349.5,137h6v1.1h-6V137z M355.4,136.2h-6v-1.1h6V136.2z M364.5,136.3c-1.3,0.6-2.9,1.1-4.7,1.4l0.1,1
						c1.7-0.4,3.2-0.9,4.5-1.5V136.3z M362.3,126.6c-0.6,1.6-1.3,3-2.2,4.2c-0.1,0.2-0.3,0.3-0.4,0.4l0.3,0.9
						c0.8-0.1,1.7-0.2,2.5-0.3c-0.8,1.3-1.5,2.2-2,2.8c-0.1,0.1-0.3,0.2-0.5,0.3l0.3,0.9c1.4-0.2,2.9-0.6,4.4-1.1v-0.9
						c-1,0.4-2.1,0.7-3.1,0.9c0.9-1,2-2.7,3.3-5.1l-0.9-0.4l-0.5,0.9c-0.2,0.3-0.3,0.5-0.5,0.8c-0.7,0.1-1.3,0.2-2,0.3
						c0.8-1,1.5-2.4,2.3-4.2L362.3,126.6z M371.2,127.2h-5.7v10.7h-1.2v1h8.1v-1h-1.2V127.2z M366.5,137.9v-2.7h3.7v2.7H366.5z
						 M366.5,134.3v-2.6h3.7v2.6H366.5z M366.5,130.7v-2.5h3.7v2.5H366.5z M377.3,127.8c-1.1,0-2,0.5-2.7,1.6
						c-0.6,1-0.9,2.3-0.9,3.9c0,1.5,0.3,2.7,0.9,3.6c0.6,0.9,1.5,1.4,2.7,1.4c1,0,1.8-0.3,2.4-1c0.6-0.6,1-1.5,1-2.4
						c0-1-0.3-1.8-0.9-2.4c-0.6-0.6-1.4-0.9-2.3-0.9c-0.6,0-1.1,0.1-1.6,0.4c-0.5,0.3-0.8,0.7-1.1,1.2h-0.1l0-0.3l0,0l0-0.1
						c0-1.1,0.2-2.1,0.7-2.8c0.4-0.8,1.1-1.2,1.8-1.2c1.2,0,1.8,0.6,2.1,1.7h1.1C380.3,128.7,379.2,127.8,377.3,127.8z M377.3,132.4
						c0.7,0,1.2,0.2,1.7,0.7c0.4,0.4,0.6,1,0.6,1.7c0,0.7-0.2,1.3-0.6,1.8c-0.4,0.4-1,0.7-1.6,0.7c-0.7,0-1.2-0.2-1.7-0.7
						c-0.4-0.4-0.6-1-0.6-1.7c0-0.7,0.2-1.3,0.6-1.7S376.6,132.4,377.3,132.4z"/>
				</g>
			</g>
			<rect x="290" y="0" class="st2" width="140" height="190"/>
			<path class="st3" d="M290,0h140v190H290V0"/>
			<g id="命名空间2">
				<g>
					<path class="st4" d="M306.3,18.5h-4.2v5.6h1v-1h2.3v0.7h1V18.5z M303,22.2v-2.7h2.3v2.7H303z M306.6,12.5c-1.4,1.6-3.4,3-6,4.2
						l0.5,0.9c2.5-1.1,4.4-2.5,5.9-4.1c1.4,1.6,3.3,3,5.8,4.1l0.6-0.9c-2.5-1.1-4.5-2.5-6-4.2H306.6z M304.1,16.1V17h5.8v-0.9H304.1
						z M310.7,23.9c0.8,0,1.3-0.4,1.3-1.3v-4.1h-4.4v7h1v-6.1h2.4v3c0,0.4-0.2,0.6-0.6,0.6l-1.1,0l0.3,0.9H310.7z M319,24.5h6.3v0.8
						h1v-5.9h-5.8c2.6-1.2,4.4-2.8,5.4-4.7v-0.9h-5.5c0.3-0.4,0.5-0.8,0.8-1.2l-1.1-0.1c-0.8,1.5-2.5,2.7-4.8,3.8l0.7,0.9
						c1.5-0.7,2.7-1.5,3.6-2.4h5.2c-0.7,1.1-1.7,2.1-3.1,3c-0.6-0.5-1.4-1.1-2.5-1.8l-0.9,0.5c1.1,0.6,1.9,1.2,2.5,1.7
						c-1.6,0.8-3.6,1.5-6,2l0.5,1c1-0.2,1.9-0.5,2.8-0.8v4.9h1V24.5z M325.2,23.6H319v-3.2h6.3V23.6z M330.2,19.7v1h4.3V24H329v1
						H341v-1h-5.5v-3.3h4.3v-1H330.2z M336.3,15.8l-0.5,0.8c1.4,0.6,2.7,1.5,4,2.5l0.6-0.9C339.1,17.3,337.8,16.4,336.3,15.8z
						 M333.4,15.9c-1,0.9-2.3,1.7-3.9,2.3l0.4,0.9c1.6-0.7,3-1.5,4.1-2.5L333.4,15.9z M335.1,12.5l-1.1,0.2c0.2,0.4,0.4,0.8,0.6,1.3
						h-5.5v2.8h1v-1.9h9.8v1.9h1v-2.8h-5.4C335.4,13.4,335.2,12.9,335.1,12.5z M346.3,16.4v6.5h5.3v-6.5H346.3z M350.7,22h-3.4v-1.9
						h3.4V22z M347.2,19.2v-1.9h3.4v1.9H347.2z M353.2,25.3c0.9,0,1.4-0.5,1.4-1.5V13.3h-6.4v0.9h5.4v9.3c0,0.6-0.2,0.9-0.6,0.9
						l-1.2,0l0.3,0.9H353.2z M343.4,14.9v10.5h1V14.9H343.4z M345.4,12.4l-0.9,0.4c0.6,0.8,1.2,1.6,1.7,2.6l0.9-0.5
						C346.6,14,346.1,13.2,345.4,12.4z M360.3,13.8c0.9,0,1.7,0.3,2.3,0.8c0.6,0.5,0.9,1.2,0.9,2.1s-0.3,1.7-1,2.4
						c-0.3,0.3-0.9,0.8-1.8,1.5l-0.2,0.2c-1.3,0.9-2,1.6-2.2,2.3h5.2v1h-6.7c0-0.9,0.3-1.7,1-2.5c0.4-0.4,1.1-1,2.2-1.8l0.4-0.3
						c0.6-0.4,0.9-0.7,1.2-1c0.5-0.5,0.8-1.1,0.8-1.8c0-0.6-0.2-1.1-0.5-1.4c-0.4-0.3-0.9-0.5-1.5-0.5c-0.6,0-1.1,0.2-1.5,0.6
						l-0.1,0.1c-0.4,0.4-0.6,1.1-0.6,2H357c0-1.1,0.3-2,0.9-2.7C358.5,14.1,359.3,13.8,360.3,13.8z"/>
				</g>
			</g>
		</g>
	</g>
</g>
</svg>
